<mxfile host="app.diagrams.net" agent="Mozilla/5.0 (Macintosh; Intel Mac OS X 10_15_7) AppleWebKit/537.36 (KHTML, like Gecko) Chrome/136.0.0.0 Safari/537.36" version="27.0.4">
  <diagram name="Page-1" id="XcxaOrHwe6Fg6j4scY8K">
    <mxGraphModel dx="976" dy="565" grid="1" gridSize="10" guides="1" tooltips="1" connect="1" arrows="1" fold="1" page="1" pageScale="1" pageWidth="827" pageHeight="1169" math="0" shadow="0">
      <root>
        <mxCell id="0" />
        <mxCell id="1" parent="0" />
        <mxCell id="BvDjOb6NQUzLGwvD0qIP-2" value="check_usersFile()" style="rounded=0;whiteSpace=wrap;html=1;" vertex="1" parent="1">
          <mxGeometry x="355" width="120" height="60" as="geometry" />
        </mxCell>
        <mxCell id="BvDjOb6NQUzLGwvD0qIP-3" value="usersFile_isEmpty()" style="rounded=0;whiteSpace=wrap;html=1;" vertex="1" parent="1">
          <mxGeometry x="60" y="140" width="120" height="60" as="geometry" />
        </mxCell>
        <mxCell id="BvDjOb6NQUzLGwvD0qIP-4" value="csvFile_validation()" style="rounded=0;whiteSpace=wrap;html=1;" vertex="1" parent="1">
          <mxGeometry x="353.5" y="180" width="120" height="60" as="geometry" />
        </mxCell>
        <mxCell id="BvDjOb6NQUzLGwvD0qIP-5" value="no_usersFile_found()" style="rounded=0;whiteSpace=wrap;html=1;" vertex="1" parent="1">
          <mxGeometry x="640" y="140" width="120" height="60" as="geometry" />
        </mxCell>
        <mxCell id="BvDjOb6NQUzLGwvD0qIP-7" value="" style="endArrow=classic;html=1;rounded=0;entryX=0.5;entryY=0;entryDx=0;entryDy=0;exitX=0;exitY=0.5;exitDx=0;exitDy=0;" edge="1" parent="1" source="BvDjOb6NQUzLGwvD0qIP-2" target="BvDjOb6NQUzLGwvD0qIP-3">
          <mxGeometry relative="1" as="geometry">
            <mxPoint x="350" y="30" as="sourcePoint" />
            <mxPoint x="190" y="80" as="targetPoint" />
          </mxGeometry>
        </mxCell>
        <mxCell id="BvDjOb6NQUzLGwvD0qIP-8" value="Label" style="edgeLabel;resizable=0;html=1;;align=center;verticalAlign=middle;" connectable="0" vertex="1" parent="BvDjOb6NQUzLGwvD0qIP-7">
          <mxGeometry relative="1" as="geometry" />
        </mxCell>
        <mxCell id="BvDjOb6NQUzLGwvD0qIP-9" value="Empty File" style="edgeLabel;html=1;align=center;verticalAlign=middle;resizable=0;points=[];" vertex="1" connectable="0" parent="BvDjOb6NQUzLGwvD0qIP-7">
          <mxGeometry x="-0.0384" y="3" relative="1" as="geometry">
            <mxPoint as="offset" />
          </mxGeometry>
        </mxCell>
        <mxCell id="BvDjOb6NQUzLGwvD0qIP-10" value="" style="endArrow=classic;html=1;rounded=0;exitX=0.5;exitY=1;exitDx=0;exitDy=0;entryX=0.5;entryY=0;entryDx=0;entryDy=0;" edge="1" parent="1" source="BvDjOb6NQUzLGwvD0qIP-2" target="BvDjOb6NQUzLGwvD0qIP-4">
          <mxGeometry relative="1" as="geometry">
            <mxPoint x="330" y="270" as="sourcePoint" />
            <mxPoint x="490" y="270" as="targetPoint" />
          </mxGeometry>
        </mxCell>
        <mxCell id="BvDjOb6NQUzLGwvD0qIP-11" value="No empty file" style="edgeLabel;resizable=0;html=1;;align=center;verticalAlign=middle;" connectable="0" vertex="1" parent="BvDjOb6NQUzLGwvD0qIP-10">
          <mxGeometry relative="1" as="geometry" />
        </mxCell>
        <mxCell id="BvDjOb6NQUzLGwvD0qIP-14" value="" style="endArrow=classic;html=1;rounded=0;exitX=1;exitY=0.5;exitDx=0;exitDy=0;entryX=0.5;entryY=0;entryDx=0;entryDy=0;" edge="1" parent="1" source="BvDjOb6NQUzLGwvD0qIP-2" target="BvDjOb6NQUzLGwvD0qIP-5">
          <mxGeometry relative="1" as="geometry">
            <mxPoint x="330" y="270" as="sourcePoint" />
            <mxPoint x="490" y="270" as="targetPoint" />
          </mxGeometry>
        </mxCell>
        <mxCell id="BvDjOb6NQUzLGwvD0qIP-15" value="File do not exists" style="edgeLabel;resizable=0;html=1;;align=center;verticalAlign=middle;" connectable="0" vertex="1" parent="BvDjOb6NQUzLGwvD0qIP-14">
          <mxGeometry relative="1" as="geometry" />
        </mxCell>
        <mxCell id="BvDjOb6NQUzLGwvD0qIP-18" value="" style="endArrow=classic;html=1;rounded=0;exitX=0.5;exitY=1;exitDx=0;exitDy=0;" edge="1" parent="1" source="BvDjOb6NQUzLGwvD0qIP-4" target="BvDjOb6NQUzLGwvD0qIP-21">
          <mxGeometry relative="1" as="geometry">
            <mxPoint x="330" y="270" as="sourcePoint" />
            <mxPoint x="415" y="200" as="targetPoint" />
          </mxGeometry>
        </mxCell>
        <mxCell id="BvDjOb6NQUzLGwvD0qIP-22" value="True" style="edgeLabel;html=1;align=center;verticalAlign=middle;resizable=0;points=[];" vertex="1" connectable="0" parent="BvDjOb6NQUzLGwvD0qIP-18">
          <mxGeometry x="0.05" y="-5" relative="1" as="geometry">
            <mxPoint as="offset" />
          </mxGeometry>
        </mxCell>
        <mxCell id="BvDjOb6NQUzLGwvD0qIP-21" value="display_allUsers()" style="rounded=0;whiteSpace=wrap;html=1;" vertex="1" parent="1">
          <mxGeometry x="270" y="300" width="120" height="60" as="geometry" />
        </mxCell>
        <mxCell id="BvDjOb6NQUzLGwvD0qIP-23" value="" style="endArrow=classic;html=1;rounded=0;exitX=0.621;exitY=1.017;exitDx=0;exitDy=0;exitPerimeter=0;" edge="1" parent="1" source="BvDjOb6NQUzLGwvD0qIP-4" target="BvDjOb6NQUzLGwvD0qIP-26">
          <mxGeometry relative="1" as="geometry">
            <mxPoint x="430" y="250" as="sourcePoint" />
            <mxPoint x="480" y="200" as="targetPoint" />
          </mxGeometry>
        </mxCell>
        <mxCell id="BvDjOb6NQUzLGwvD0qIP-24" value="False" style="edgeLabel;resizable=0;html=1;;align=center;verticalAlign=middle;" connectable="0" vertex="1" parent="BvDjOb6NQUzLGwvD0qIP-23">
          <mxGeometry relative="1" as="geometry" />
        </mxCell>
        <mxCell id="BvDjOb6NQUzLGwvD0qIP-26" value="- new window&lt;div&gt;- delete invalid rows btn&lt;/div&gt;" style="rounded=0;whiteSpace=wrap;html=1;" vertex="1" parent="1">
          <mxGeometry x="430" y="300" width="120" height="60" as="geometry" />
        </mxCell>
        <mxCell id="BvDjOb6NQUzLGwvD0qIP-27" value="" style="endArrow=classic;html=1;rounded=0;exitX=0.5;exitY=1;exitDx=0;exitDy=0;entryX=0.333;entryY=-0.017;entryDx=0;entryDy=0;entryPerimeter=0;" edge="1" parent="1" source="BvDjOb6NQUzLGwvD0qIP-21" target="BvDjOb6NQUzLGwvD0qIP-34">
          <mxGeometry relative="1" as="geometry">
            <mxPoint x="300" y="330" as="sourcePoint" />
            <mxPoint x="380" y="300" as="targetPoint" />
          </mxGeometry>
        </mxCell>
        <mxCell id="BvDjOb6NQUzLGwvD0qIP-47" value="Redirect" style="edgeLabel;html=1;align=center;verticalAlign=middle;resizable=0;points=[];" vertex="1" connectable="0" parent="BvDjOb6NQUzLGwvD0qIP-27">
          <mxGeometry x="-0.2223" y="3" relative="1" as="geometry">
            <mxPoint as="offset" />
          </mxGeometry>
        </mxCell>
        <mxCell id="BvDjOb6NQUzLGwvD0qIP-31" value="" style="endArrow=classic;html=1;rounded=0;exitX=0.442;exitY=1.033;exitDx=0;exitDy=0;exitPerimeter=0;" edge="1" parent="1" source="BvDjOb6NQUzLGwvD0qIP-26" target="BvDjOb6NQUzLGwvD0qIP-34">
          <mxGeometry relative="1" as="geometry">
            <mxPoint x="430" y="300" as="sourcePoint" />
            <mxPoint x="440" y="300" as="targetPoint" />
            <Array as="points" />
          </mxGeometry>
        </mxCell>
        <mxCell id="BvDjOb6NQUzLGwvD0qIP-32" value="True&lt;div&gt;Redirect&lt;/div&gt;" style="edgeLabel;resizable=0;html=1;;align=center;verticalAlign=middle;" connectable="0" vertex="1" parent="BvDjOb6NQUzLGwvD0qIP-31">
          <mxGeometry relative="1" as="geometry" />
        </mxCell>
        <mxCell id="BvDjOb6NQUzLGwvD0qIP-34" value="- new window&lt;div&gt;- display all users&lt;/div&gt;&lt;div&gt;- select user&lt;/div&gt;&lt;div&gt;- add new user btn&lt;/div&gt;" style="rounded=0;whiteSpace=wrap;html=1;" vertex="1" parent="1">
          <mxGeometry x="360" y="430" width="120" height="60" as="geometry" />
        </mxCell>
        <mxCell id="BvDjOb6NQUzLGwvD0qIP-35" value="" style="endArrow=classic;html=1;rounded=0;exitX=0.5;exitY=1;exitDx=0;exitDy=0;" edge="1" parent="1" source="BvDjOb6NQUzLGwvD0qIP-3" target="BvDjOb6NQUzLGwvD0qIP-37">
          <mxGeometry relative="1" as="geometry">
            <mxPoint x="360" y="270" as="sourcePoint" />
            <mxPoint x="120" y="200" as="targetPoint" />
          </mxGeometry>
        </mxCell>
        <mxCell id="BvDjOb6NQUzLGwvD0qIP-37" value="- create headers&lt;div&gt;- new window&lt;/div&gt;&lt;div&gt;- add user_name field&lt;/div&gt;&lt;div&gt;- add user_role field&lt;br&gt;&lt;div&gt;- add user btn&lt;/div&gt;&lt;/div&gt;" style="rounded=0;whiteSpace=wrap;html=1;" vertex="1" parent="1">
          <mxGeometry x="60" y="260" width="120" height="80" as="geometry" />
        </mxCell>
        <mxCell id="BvDjOb6NQUzLGwvD0qIP-39" value="" style="endArrow=classic;html=1;rounded=0;exitX=0.433;exitY=1.013;exitDx=0;exitDy=0;exitPerimeter=0;entryX=0;entryY=0.5;entryDx=0;entryDy=0;" edge="1" parent="1" source="BvDjOb6NQUzLGwvD0qIP-37" target="BvDjOb6NQUzLGwvD0qIP-34">
          <mxGeometry relative="1" as="geometry">
            <mxPoint x="360" y="270" as="sourcePoint" />
            <mxPoint x="460" y="270" as="targetPoint" />
          </mxGeometry>
        </mxCell>
        <mxCell id="BvDjOb6NQUzLGwvD0qIP-40" value="First user created&lt;div&gt;Redirect&lt;/div&gt;" style="edgeLabel;resizable=0;html=1;;align=center;verticalAlign=middle;" connectable="0" vertex="1" parent="BvDjOb6NQUzLGwvD0qIP-39">
          <mxGeometry relative="1" as="geometry" />
        </mxCell>
        <mxCell id="BvDjOb6NQUzLGwvD0qIP-42" value="" style="endArrow=classic;html=1;rounded=0;exitX=0.5;exitY=1;exitDx=0;exitDy=0;" edge="1" parent="1" source="BvDjOb6NQUzLGwvD0qIP-5" target="BvDjOb6NQUzLGwvD0qIP-44">
          <mxGeometry relative="1" as="geometry">
            <mxPoint x="360" y="270" as="sourcePoint" />
            <mxPoint x="700" y="190" as="targetPoint" />
          </mxGeometry>
        </mxCell>
        <mxCell id="BvDjOb6NQUzLGwvD0qIP-44" value="- create users file&lt;div&gt;&lt;br&gt;&lt;/div&gt;" style="rounded=0;whiteSpace=wrap;html=1;" vertex="1" parent="1">
          <mxGeometry x="640" y="270" width="120" height="60" as="geometry" />
        </mxCell>
        <mxCell id="BvDjOb6NQUzLGwvD0qIP-45" value="" style="endArrow=classic;html=1;rounded=0;exitX=0;exitY=0.5;exitDx=0;exitDy=0;entryX=0.992;entryY=0.413;entryDx=0;entryDy=0;entryPerimeter=0;" edge="1" parent="1" source="BvDjOb6NQUzLGwvD0qIP-44" target="BvDjOb6NQUzLGwvD0qIP-37">
          <mxGeometry relative="1" as="geometry">
            <mxPoint x="360" y="270" as="sourcePoint" />
            <mxPoint x="460" y="270" as="targetPoint" />
            <Array as="points">
              <mxPoint x="600" y="170" />
              <mxPoint x="240" y="170" />
            </Array>
          </mxGeometry>
        </mxCell>
      </root>
    </mxGraphModel>
  </diagram>
</mxfile>
